<svg xmlns="http://www.w3.org/2000/svg" viewBox="0 0 48 48">
  <defs>
    <linearGradient id="f" x1="12" y1="6" x2="36" y2="42" gradientUnits="userSpaceOnUse">
      <stop stop-color="#10a37f"/>
      <stop offset=".55" stop-color="#047857"/>
      <stop offset="1" stop-color="#043d2f"/>
    </linearGradient>
    <linearGradient id="t" x1="16" y1="10" x2="32" y2="20" gradientUnits="userSpaceOnUse">
      <stop stop-color="#e6f4ef"/>
      <stop offset="1" stop-color="#a7d6c5"/>
    </linearGradient>
  </defs>
  <path d="M15 6 H33 L42 15 V33 L33 42 H15 L6 33 V15 Z" fill="url(#f)" stroke="#043d2f" stroke-width="1.2" stroke-linejoin="round"/>
  <path d="M15 6 L18 15 M33 6 L30 15 M42 15 L33 18 M42 33 L33 30 M33 42 L30 33 M15 42 L18 33 M6 33 L15 30 M6 15 L15 18" stroke="#043d2f" stroke-width=".9" stroke-opacity=".55" stroke-linecap="round"/>
  <path d="M18 15 H30 L33 18 V30 L30 33 H18 L15 30 V18 Z" fill="url(#t)" fill-opacity=".92" stroke="#043d2f" stroke-width=".9" stroke-linejoin="round"/>
  <path d="M20 18 L26 18 L22 24 Z" fill="#fff" fill-opacity=".6"/>
</svg>
